<svg width="1046" height="209" viewBox="0 0 1046 209" fill="none" xmlns="http://www.w3.org/2000/svg">
<g opacity="0.5">
<mask id="path-1-inside-1" fill="white">
<path fill-rule="evenodd" clip-rule="evenodd" d="M170 95.9997C170 95.9997 362.477 -116.458 563.059 95.9997C563.059 95.9997 739.327 -117.754 947 95.9997"/>
</mask>
<path fill-rule="evenodd" clip-rule="evenodd" d="M170 95.9997C170 95.9997 362.477 -116.458 563.059 95.9997C563.059 95.9997 739.327 -117.754 947 95.9997" fill="black" fill-opacity="0.01"/>
<path d="M563.059 95.9997L562.332 96.6862L563.109 97.51L563.83 96.6359L563.059 95.9997ZM170 95.9997C170.741 96.6711 170.741 96.6706 170.743 96.6694C170.744 96.6679 170.746 96.6658 170.749 96.6629C170.754 96.6569 170.762 96.6478 170.774 96.6354C170.796 96.6108 170.83 96.5735 170.876 96.5239C170.967 96.4246 171.105 96.2759 171.288 96.0802C171.655 95.6888 172.203 95.1095 172.928 94.3617C174.379 92.8661 176.535 90.6968 179.353 88.0091C184.988 82.6336 193.265 75.1861 203.825 66.9098C224.95 50.3537 255.186 30.4996 291.652 17.2679C328.113 4.03836 370.783 -2.56458 416.812 7.34649C462.836 17.2565 512.302 43.6948 562.332 96.6862L563.786 95.3132C513.524 42.0755 463.712 15.3993 417.233 5.3913C370.759 -4.61558 327.701 2.06011 290.97 15.3878C254.245 28.7134 223.824 48.6952 202.592 65.3357C191.973 73.6577 183.647 81.1487 177.972 86.562C175.135 89.2688 172.96 91.4565 171.493 92.9694C170.759 93.7258 170.202 94.3136 169.828 94.7132C169.641 94.913 169.5 95.0658 169.405 95.1691C169.357 95.2208 169.321 95.2601 169.297 95.2867C169.285 95.3 169.275 95.3102 169.269 95.3171C169.266 95.3206 169.263 95.3234 169.262 95.3251C169.26 95.3271 169.259 95.3283 170 95.9997ZM563.059 95.9997C563.83 96.6359 563.831 96.6355 563.832 96.6343C563.833 96.6328 563.834 96.6307 563.837 96.6278C563.842 96.6218 563.849 96.6127 563.86 96.6003C563.88 96.5756 563.911 96.5382 563.953 96.4883C564.037 96.3886 564.163 96.2392 564.331 96.0425C564.667 95.6491 565.171 95.0666 565.837 94.3147C567.171 92.8108 569.156 90.6291 571.759 87.926C576.964 82.5195 584.636 75.0289 594.491 66.7045C614.205 50.052 642.632 30.0838 677.509 16.7763C712.377 3.47206 753.68 -3.1711 799.183 6.79917C844.686 16.7693 894.474 43.3711 946.283 96.6965L947.717 95.3028C895.689 41.7514 845.567 14.9148 799.611 4.84552C753.657 -5.22361 711.954 1.49283 676.796 14.9078C641.646 28.3196 613.026 48.4301 593.2 65.1766C583.285 73.5518 575.563 81.0907 570.318 86.5389C567.695 89.2631 565.691 91.465 564.341 92.9879C563.666 93.7494 563.154 94.3411 562.81 94.7436C562.638 94.9448 562.508 95.0987 562.421 95.2028C562.377 95.2549 562.344 95.2945 562.322 95.3214C562.311 95.3348 562.302 95.3451 562.297 95.3521C562.294 95.3556 562.291 95.3585 562.29 95.3602C562.288 95.3622 562.287 95.3635 563.059 95.9997Z" fill="white" mask="url(#path-1-inside-1)"/>
</g>
<path d="M83.5343 161.356C86.1263 162.508 87.4223 164.44 87.4223 167.152C87.4223 169.528 86.6783 171.46 85.1903 172.948C83.6303 174.508 81.4943 175.288 78.7823 175.288C77.6543 175.288 76.4783 175.18 75.2543 174.964C74.2943 174.796 73.3343 174.568 72.3743 174.28L71.3303 173.92V167.44H73.0943C73.5023 167.44 73.7423 167.644 73.8143 168.052C73.8623 168.244 73.9223 168.832 73.9943 169.816L74.1023 171.4C75.9743 172.072 77.4383 172.408 78.4943 172.408C79.5503 172.408 80.4383 172.288 81.1583 172.048C81.8543 171.832 82.4063 171.508 82.8143 171.076C83.7263 170.236 84.1823 169.096 84.1823 167.656C84.1823 166.264 83.5343 165.208 82.2383 164.488C81.6623 164.128 81.0143 163.84 80.2943 163.624C77.7263 162.832 76.2143 162.328 75.7583 162.112C75.0623 161.8 74.4023 161.368 73.7783 160.816C72.5063 159.688 71.8703 158.08 71.8703 155.992C71.8703 154.096 72.5543 152.464 73.9223 151.096C75.4103 149.656 77.3303 148.936 79.6823 148.936C82.1783 148.936 84.5903 149.416 86.9183 150.376V156.316H85.1903C84.7583 156.316 84.5063 156.112 84.4343 155.704C84.4343 155.632 84.4103 155.392 84.3623 154.984C84.3383 154.552 84.2783 153.724 84.1823 152.5C82.5023 152.044 81.0863 151.816 79.9343 151.816C78.3743 151.816 77.1743 152.2 76.3343 152.968C75.5183 153.712 75.1103 154.672 75.1103 155.848C75.1103 157.12 75.7583 158.116 77.0543 158.836C77.5823 159.172 78.2543 159.472 79.0703 159.736C81.2303 160.456 82.7423 160.996 83.6063 161.356H83.5343ZM97.5332 156.496C98.5893 156.496 99.5853 156.676 100.521 157.036C101.481 157.396 102.273 157.912 102.897 158.584C103.617 159.352 104.145 160.204 104.481 161.14C104.865 162.22 105.057 163.372 105.057 164.596C105.057 165.148 105.009 165.484 104.913 165.604C104.793 165.772 104.577 165.856 104.265 165.856H92.1693C92.1693 167.008 92.3133 168.016 92.6013 168.88C92.8413 169.624 93.2493 170.32 93.8253 170.968C94.3533 171.568 94.9533 172 95.6253 172.264C96.3453 172.552 97.1133 172.696 97.9293 172.696C98.7933 172.696 99.4893 172.612 100.017 172.444C100.521 172.276 101.025 172.072 101.529 171.832C102.057 171.568 102.417 171.376 102.609 171.256C102.921 171.064 103.161 170.968 103.329 170.968C103.593 170.968 103.797 171.076 103.941 171.292L104.841 172.48C104.505 172.912 104.025 173.32 103.401 173.704C102.681 174.16 102.093 174.46 101.637 174.604C100.917 174.844 100.269 175.012 99.6933 175.108C98.9733 175.228 98.3133 175.288 97.7133 175.288C96.4653 175.288 95.3013 175.072 94.2213 174.64C93.1893 174.232 92.2653 173.596 91.4493 172.732C90.6813 171.94 90.0813 170.92 89.6493 169.672C89.2173 168.448 89.0013 167.056 89.0013 165.496C89.0013 164.248 89.2053 163.072 89.6133 161.968C90.0213 160.84 90.5853 159.88 91.3053 159.088C92.0493 158.272 92.9493 157.636 94.0053 157.18C95.0613 156.724 96.2373 156.496 97.5332 156.496ZM97.6053 158.836C96.0453 158.836 94.8333 159.28 93.9693 160.168C93.0813 161.104 92.5293 162.352 92.3133 163.912H102.213C102.213 163.168 102.105 162.496 101.889 161.896C101.625 161.152 101.337 160.612 101.025 160.276C100.617 159.844 100.125 159.496 99.5493 159.232C98.9973 158.992 98.3373 158.872 97.5693 158.872L97.6053 158.836ZM122.992 172.696C123.16 172.72 123.292 172.804 123.388 172.948C123.484 173.068 123.532 173.212 123.532 173.38V174.928H119.788C119.572 174.928 119.32 174.88 119.032 174.784C118.864 174.736 118.744 174.544 118.672 174.208L118.312 172.48L116.872 173.668C116.464 174.004 115.984 174.292 115.432 174.532C114.904 174.772 114.376 174.952 113.848 175.072C113.368 175.192 112.72 175.252 111.904 175.252C111.232 175.252 110.584 175.144 109.96 174.928C109.216 174.664 108.676 174.376 108.34 174.064C107.908 173.68 107.548 173.176 107.26 172.552C106.996 172 106.864 171.28 106.864 170.392C106.864 169.624 107.056 168.928 107.44 168.304C107.872 167.608 108.52 167.008 109.384 166.504C110.344 165.952 111.496 165.52 112.84 165.208C114.232 164.896 115.984 164.74 118.096 164.74V163.336C118.096 161.92 117.784 160.84 117.16 160.096C116.536 159.352 115.636 158.98 114.46 158.98C113.692 158.98 113.032 159.088 112.48 159.304C111.856 159.544 111.4 159.76 111.112 159.952C110.968 160.048 110.8 160.156 110.608 160.276C110.44 160.372 110.26 160.48 110.068 160.6C109.804 160.792 109.528 160.888 109.24 160.888C108.976 160.888 108.784 160.84 108.664 160.744C108.52 160.624 108.4 160.48 108.304 160.312L107.728 159.304C108.664 158.392 109.744 157.672 110.968 157.144C112.072 156.664 113.368 156.424 114.856 156.424C115.936 156.424 116.848 156.592 117.592 156.928C118.408 157.288 119.068 157.744 119.572 158.296C120.1 158.848 120.508 159.568 120.796 160.456C121.06 161.248 121.192 162.184 121.192 163.264V172.372C122.344 172.612 122.944 172.744 122.992 172.768V172.696ZM118.024 166.792C116.464 166.792 115.216 166.876 114.28 167.044C113.368 167.212 112.528 167.464 111.76 167.8C111.088 168.112 110.608 168.472 110.32 168.88C110.032 169.312 109.888 169.768 109.888 170.248C109.888 170.632 109.972 171.04 110.14 171.472C110.284 171.832 110.5 172.12 110.788 172.336C111.076 172.552 111.388 172.708 111.724 172.804C112.132 172.924 112.528 172.984 112.912 172.984C113.392 172.984 113.896 172.924 114.424 172.804C114.904 172.684 115.348 172.528 115.756 172.336C116.116 172.168 116.512 171.904 116.944 171.544C117.184 171.352 117.544 171.016 118.024 170.536V166.792ZM131.333 160.492C132.677 157.78 134.525 156.424 136.877 156.424C137.813 156.424 138.641 156.64 139.361 157.072L138.965 159.484C138.893 159.796 138.737 159.952 138.497 159.952C138.329 159.952 138.041 159.892 137.633 159.772C137.225 159.652 136.733 159.592 136.157 159.592C134.045 159.592 132.485 160.864 131.477 163.408V172.408L133.529 172.804C133.889 172.876 134.069 173.104 134.069 173.488V175H125.681V173.488C125.681 173.104 125.861 172.876 126.221 172.804L128.273 172.408V159.412C127.121 159.196 126.437 159.052 126.221 158.98C125.861 158.908 125.681 158.68 125.681 158.296V156.784H130.109C130.445 156.784 130.673 156.844 130.793 156.964C130.913 157.084 131.009 157.312 131.081 157.648L131.297 160.492H131.333ZM155.056 172.444C153.544 174.316 151.288 175.252 148.288 175.252C145.984 175.252 144.088 174.424 142.6 172.768C141.04 171.016 140.26 168.712 140.26 165.856C140.26 163.072 140.992 160.828 142.456 159.124C143.992 157.372 146.128 156.496 148.864 156.496C150.232 156.496 152.032 156.928 154.264 157.792V162.544H152.824C152.488 162.544 152.284 162.376 152.212 162.04C152.188 161.968 152.14 161.512 152.068 160.672L151.96 159.484C151.696 159.388 151.432 159.316 151.168 159.268C150.928 159.22 150.76 159.184 150.664 159.16C150.016 159.064 149.344 159.016 148.648 159.016C148.024 159.016 147.364 159.172 146.668 159.484C146.02 159.772 145.456 160.216 144.976 160.816C144.064 162.016 143.608 163.696 143.608 165.856C143.608 168.016 144.088 169.72 145.048 170.968C145.984 172.168 147.268 172.768 148.9 172.768C150.412 172.768 151.744 172.264 152.896 171.256C153.088 171.064 153.328 170.968 153.616 170.968C153.88 170.968 154.072 171.064 154.192 171.256L155.056 172.444ZM162.872 159.232C164.624 157.408 166.568 156.496 168.704 156.496C170.648 156.496 172.16 157.12 173.24 158.368C174.296 159.616 174.824 161.296 174.824 163.408V172.372C175.976 172.588 176.66 172.732 176.876 172.804C177.236 172.876 177.416 173.104 177.416 173.488V175H171.62V163.408C171.62 160.504 170.336 159.052 167.768 159.052C166.016 159.052 164.384 159.904 162.872 161.608V172.408L163.304 172.48L164.888 172.804C165.272 172.876 165.464 173.104 165.464 173.488V175H157.04V173.488C157.04 173.104 157.232 172.876 157.616 172.804L159.632 172.408V151.132C158.264 150.916 157.472 150.772 157.256 150.7C156.872 150.628 156.68 150.4 156.68 150.016V148.504H162.872V159.232ZM201.243 149.728C204.795 150.88 206.571 153.376 206.571 157.216C206.571 159.688 205.755 161.632 204.123 163.048C202.371 164.584 199.995 165.352 196.995 165.352H193.323V172.372C193.515 172.444 194.211 172.588 195.411 172.804C195.747 172.876 195.915 173.104 195.915 173.488V175H187.275V173.488C187.275 173.104 187.455 172.876 187.815 172.804L189.867 172.408V151.852C188.715 151.636 188.031 151.492 187.815 151.42C187.455 151.348 187.275 151.12 187.275 150.736V149.224H196.995C198.603 149.224 200.019 149.404 201.243 149.764V149.728ZM203.079 157.144C203.079 155.536 202.575 154.264 201.567 153.328C200.583 152.416 199.059 151.96 196.995 151.96H193.323V162.544H196.995C198.939 162.544 200.439 162.064 201.495 161.104C202.575 160.12 203.115 158.812 203.115 157.18L203.079 157.144ZM216.32 172.768C216.704 172.84 216.896 173.068 216.896 173.452V175H208.472V173.452C208.472 173.068 208.664 172.84 209.048 172.768L211.064 172.372V151.096C209.96 150.88 209.288 150.736 209.048 150.664C208.664 150.592 208.472 150.376 208.472 150.016V148.468H214.304V172.336C215.408 172.552 216.08 172.696 216.32 172.768ZM234.754 172.696C234.922 172.72 235.054 172.804 235.15 172.948C235.246 173.068 235.294 173.212 235.294 173.38V174.928H231.55C231.334 174.928 231.082 174.88 230.794 174.784C230.626 174.736 230.506 174.544 230.434 174.208L230.074 172.48L228.634 173.668C228.226 174.004 227.746 174.292 227.194 174.532C226.666 174.772 226.138 174.952 225.61 175.072C225.13 175.192 224.482 175.252 223.666 175.252C222.994 175.252 222.346 175.144 221.722 174.928C220.978 174.664 220.438 174.376 220.102 174.064C219.67 173.68 219.31 173.176 219.022 172.552C218.758 172 218.626 171.28 218.626 170.392C218.626 169.624 218.818 168.928 219.202 168.304C219.634 167.608 220.282 167.008 221.146 166.504C222.106 165.952 223.258 165.52 224.602 165.208C225.994 164.896 227.746 164.74 229.858 164.74V163.336C229.858 161.92 229.546 160.84 228.922 160.096C228.298 159.352 227.398 158.98 226.222 158.98C225.454 158.98 224.794 159.088 224.242 159.304C223.618 159.544 223.162 159.76 222.874 159.952C222.73 160.048 222.562 160.156 222.37 160.276C222.202 160.372 222.022 160.48 221.83 160.6C221.566 160.792 221.29 160.888 221.002 160.888C220.738 160.888 220.546 160.84 220.426 160.744C220.282 160.624 220.162 160.48 220.066 160.312L219.49 159.304C220.426 158.392 221.506 157.672 222.73 157.144C223.834 156.664 225.13 156.424 226.618 156.424C227.698 156.424 228.61 156.592 229.354 156.928C230.17 157.288 230.83 157.744 231.334 158.296C231.862 158.848 232.27 159.568 232.558 160.456C232.822 161.248 232.954 162.184 232.954 163.264V172.372C234.106 172.612 234.706 172.744 234.754 172.768V172.696ZM229.786 166.792C228.226 166.792 226.978 166.876 226.042 167.044C225.13 167.212 224.29 167.464 223.522 167.8C222.85 168.112 222.37 168.472 222.082 168.88C221.794 169.312 221.65 169.768 221.65 170.248C221.65 170.632 221.734 171.04 221.902 171.472C222.046 171.832 222.262 172.12 222.55 172.336C222.838 172.552 223.15 172.708 223.486 172.804C223.894 172.924 224.29 172.984 224.674 172.984C225.154 172.984 225.658 172.924 226.186 172.804C226.666 172.684 227.11 172.528 227.518 172.336C227.878 172.168 228.274 171.904 228.706 171.544C228.946 171.352 229.306 171.016 229.786 170.536V166.792ZM251.771 172.444C250.259 174.316 248.003 175.252 245.003 175.252C242.699 175.252 240.803 174.424 239.315 172.768C237.755 171.016 236.975 168.712 236.975 165.856C236.975 163.072 237.707 160.828 239.171 159.124C240.707 157.372 242.843 156.496 245.579 156.496C246.947 156.496 248.747 156.928 250.979 157.792V162.544H249.539C249.203 162.544 248.999 162.376 248.927 162.04C248.903 161.968 248.855 161.512 248.783 160.672L248.675 159.484C248.411 159.388 248.147 159.316 247.883 159.268C247.643 159.22 247.475 159.184 247.379 159.16C246.731 159.064 246.059 159.016 245.363 159.016C244.739 159.016 244.079 159.172 243.383 159.484C242.735 159.772 242.171 160.216 241.691 160.816C240.779 162.016 240.323 163.696 240.323 165.856C240.323 168.016 240.803 169.72 241.763 170.968C242.699 172.168 243.983 172.768 245.615 172.768C247.127 172.768 248.459 172.264 249.611 171.256C249.803 171.064 250.043 170.968 250.331 170.968C250.595 170.968 250.787 171.064 250.907 171.256L251.771 172.444ZM262.697 156.496C263.753 156.496 264.749 156.676 265.685 157.036C266.645 157.396 267.437 157.912 268.061 158.584C268.781 159.352 269.309 160.204 269.645 161.14C270.029 162.22 270.221 163.372 270.221 164.596C270.221 165.148 270.173 165.484 270.077 165.604C269.957 165.772 269.741 165.856 269.429 165.856H257.333C257.333 167.008 257.477 168.016 257.765 168.88C258.005 169.624 258.413 170.32 258.989 170.968C259.517 171.568 260.117 172 260.789 172.264C261.509 172.552 262.277 172.696 263.093 172.696C263.957 172.696 264.653 172.612 265.181 172.444C265.685 172.276 266.189 172.072 266.693 171.832C267.221 171.568 267.581 171.376 267.773 171.256C268.085 171.064 268.325 170.968 268.493 170.968C268.757 170.968 268.961 171.076 269.105 171.292L270.005 172.48C269.669 172.912 269.189 173.32 268.565 173.704C267.845 174.16 267.257 174.46 266.801 174.604C266.081 174.844 265.433 175.012 264.857 175.108C264.137 175.228 263.477 175.288 262.877 175.288C261.629 175.288 260.465 175.072 259.385 174.64C258.353 174.232 257.429 173.596 256.613 172.732C255.845 171.94 255.245 170.92 254.813 169.672C254.381 168.448 254.165 167.056 254.165 165.496C254.165 164.248 254.369 163.072 254.777 161.968C255.185 160.84 255.749 159.88 256.469 159.088C257.213 158.272 258.113 157.636 259.169 157.18C260.225 156.724 261.401 156.496 262.697 156.496ZM262.769 158.836C261.209 158.836 259.997 159.28 259.133 160.168C258.245 161.104 257.693 162.352 257.477 163.912H267.377C267.377 163.168 267.269 162.496 267.053 161.896C266.789 161.152 266.501 160.612 266.189 160.276C265.781 159.844 265.289 159.496 264.713 159.232C264.161 158.992 263.501 158.872 262.733 158.872L262.769 158.836ZM279.48 156.496C280.728 156.496 282.312 156.82 284.232 157.468V162.148H282.828C282.492 162.148 282.288 161.98 282.216 161.644L282 159.268C280.872 159.004 279.936 158.872 279.192 158.872H279.156C278.172 158.872 277.344 159.136 276.672 159.664C276.024 160.168 275.7 160.72 275.7 161.32C275.7 161.944 275.844 162.4 276.132 162.688C276.612 163.24 277.308 163.66 278.22 163.948L279.3 164.272C279.492 164.32 279.876 164.44 280.452 164.632L282.18 165.28C282.66 165.448 283.164 165.76 283.692 166.216C284.676 166.984 285.168 168.04 285.168 169.384C285.168 171.136 284.58 172.528 283.404 173.56C282.132 174.688 280.524 175.252 278.58 175.252C276.588 175.252 274.62 174.928 272.676 174.28V169.528H273.972C274.26 169.528 274.44 169.672 274.512 169.96L274.728 172.264C275.688 172.744 276.924 172.984 278.436 172.984C279.588 172.984 280.524 172.684 281.244 172.084C281.868 171.532 282.18 170.92 282.18 170.248C282.18 169.552 282.036 169.048 281.748 168.736C281.412 168.352 281.052 168.064 280.668 167.872C280.14 167.608 279.636 167.416 279.156 167.296C277.38 166.72 276.264 166.336 275.808 166.144C275.232 165.88 274.692 165.544 274.188 165.136C273.18 164.296 272.676 163.168 272.676 161.752C272.676 160.312 273.252 159.088 274.404 158.08C275.604 157.024 277.296 156.496 279.48 156.496Z" fill="#E8E8E8"/>
<path fill-rule="evenodd" clip-rule="evenodd" d="M177 34.9998C203.51 34.9998 225 56.4902 225 82.9998C225 109.51 203.51 131 177 131C150.49 131 129 109.51 129 82.9998C129 56.4902 150.49 34.9998 177 34.9998Z" fill="#333333"/>
<path fill-rule="evenodd" clip-rule="evenodd" d="M205.266 108.812L202.312 111.766L186 95.4529C185.062 96.2968 184.031 97.0483 182.906 97.7031C181.781 98.3601 180.608 98.9224 179.391 99.3906C178.171 99.8608 176.881 100.212 175.523 100.445C174.163 100.68 172.827 100.797 171.516 100.797C168.327 100.797 165.35 100.188 162.586 98.9685C159.82 97.7514 157.405 96.11 155.344 94.0467C153.28 91.9856 151.663 89.571 150.492 86.8046C149.319 84.0404 148.734 81.1093 148.734 78.0155C148.734 74.8295 149.319 71.8521 150.492 69.0859C151.663 66.3218 153.28 63.9069 155.344 61.8436C157.405 59.7826 159.82 58.1653 162.586 56.992C165.35 55.821 168.327 55.2342 171.516 55.2342C174.609 55.2342 177.538 55.821 180.305 56.992C183.069 58.1653 185.484 59.7826 187.547 61.8436C189.608 63.9069 191.249 66.3218 192.469 69.0859C193.686 71.8521 194.297 74.8295 194.297 78.0155C194.297 79.3293 194.178 80.6653 193.945 82.0232C193.71 83.3834 193.359 84.6733 192.891 85.8904C192.42 87.1101 191.858 88.2811 191.203 89.4061C190.546 90.531 189.797 91.5638 188.953 92.4999L205.266 108.812ZM151.125 78.0155C151.125 80.828 151.639 83.4537 152.672 85.8904C153.702 88.3295 155.155 90.485 157.031 92.3593C158.905 94.2358 161.085 95.7123 163.57 96.7889C166.053 97.8677 168.703 98.4062 171.516 98.4062C174.328 98.4062 176.952 97.8677 179.391 96.7889C181.827 95.7123 183.983 94.2358 185.859 92.3593C187.734 90.485 189.21 88.3295 190.289 85.8904C191.366 83.4537 191.906 80.828 191.906 78.0155C191.906 75.203 191.366 72.5552 190.289 70.0701C189.21 67.5872 187.734 65.4076 185.859 63.5312C183.983 61.6568 181.827 60.2044 179.391 59.1716C176.952 58.1412 174.328 57.6248 171.516 57.6248C168.703 57.6248 166.053 58.1412 163.57 59.1716C161.085 60.2044 158.905 61.6568 157.031 63.5312C155.155 65.4076 153.702 67.5872 152.672 70.0701C151.639 72.5552 151.125 75.203 151.125 78.0155Z" fill="#5474FD"/>
<g clip-path="url(#clip0)">
<path d="M470.443 161.356C473.035 162.508 474.331 164.44 474.331 167.152C474.331 169.528 473.587 171.46 472.099 172.948C470.539 174.508 468.403 175.288 465.691 175.288C464.563 175.288 463.387 175.18 462.163 174.964C461.203 174.796 460.243 174.568 459.283 174.28L458.239 173.92V167.44H460.003C460.411 167.44 460.651 167.644 460.723 168.052C460.771 168.244 460.831 168.832 460.903 169.816L461.011 171.4C462.883 172.072 464.347 172.408 465.403 172.408C466.459 172.408 467.347 172.288 468.067 172.048C468.763 171.832 469.315 171.508 469.723 171.076C470.635 170.236 471.091 169.096 471.091 167.656C471.091 166.264 470.443 165.208 469.147 164.488C468.571 164.128 467.923 163.84 467.203 163.624C464.635 162.832 463.123 162.328 462.667 162.112C461.971 161.8 461.311 161.368 460.687 160.816C459.415 159.688 458.779 158.08 458.779 155.992C458.779 154.096 459.463 152.464 460.831 151.096C462.319 149.656 464.239 148.936 466.591 148.936C469.087 148.936 471.499 149.416 473.827 150.376V156.316H472.099C471.667 156.316 471.415 156.112 471.343 155.704C471.343 155.632 471.319 155.392 471.271 154.984C471.247 154.552 471.187 153.724 471.091 152.5C469.411 152.044 467.995 151.816 466.843 151.816C465.283 151.816 464.083 152.2 463.243 152.968C462.427 153.712 462.019 154.672 462.019 155.848C462.019 157.12 462.667 158.116 463.963 158.836C464.491 159.172 465.163 159.472 465.979 159.736C468.139 160.456 469.651 160.996 470.515 161.356H470.443ZM484.441 156.496C485.497 156.496 486.493 156.676 487.429 157.036C488.389 157.396 489.181 157.912 489.805 158.584C490.525 159.352 491.053 160.204 491.389 161.14C491.773 162.22 491.965 163.372 491.965 164.596C491.965 165.148 491.917 165.484 491.821 165.604C491.701 165.772 491.485 165.856 491.173 165.856H479.077C479.077 167.008 479.221 168.016 479.509 168.88C479.749 169.624 480.157 170.32 480.733 170.968C481.261 171.568 481.861 172 482.533 172.264C483.253 172.552 484.021 172.696 484.837 172.696C485.701 172.696 486.397 172.612 486.925 172.444C487.429 172.276 487.933 172.072 488.437 171.832C488.965 171.568 489.325 171.376 489.517 171.256C489.829 171.064 490.069 170.968 490.237 170.968C490.501 170.968 490.705 171.076 490.849 171.292L491.749 172.48C491.413 172.912 490.933 173.32 490.309 173.704C489.589 174.16 489.001 174.46 488.545 174.604C487.825 174.844 487.177 175.012 486.601 175.108C485.881 175.228 485.221 175.288 484.621 175.288C483.373 175.288 482.209 175.072 481.129 174.64C480.097 174.232 479.173 173.596 478.357 172.732C477.589 171.94 476.989 170.92 476.557 169.672C476.125 168.448 475.909 167.056 475.909 165.496C475.909 164.248 476.113 163.072 476.521 161.968C476.929 160.84 477.493 159.88 478.213 159.088C478.957 158.272 479.857 157.636 480.913 157.18C481.969 156.724 483.145 156.496 484.441 156.496ZM484.513 158.836C482.953 158.836 481.741 159.28 480.877 160.168C479.989 161.104 479.437 162.352 479.221 163.912H489.121C489.121 163.168 489.013 162.496 488.797 161.896C488.533 161.152 488.245 160.612 487.933 160.276C487.525 159.844 487.033 159.496 486.457 159.232C485.905 158.992 485.245 158.872 484.477 158.872L484.513 158.836ZM501.908 172.768C502.292 172.84 502.484 173.068 502.484 173.452V175H494.06V173.452C494.06 173.068 494.252 172.84 494.636 172.768L496.652 172.372V151.096C495.548 150.88 494.876 150.736 494.636 150.664C494.252 150.592 494.06 150.376 494.06 150.016V148.468H499.892V172.336C500.996 172.552 501.668 172.696 501.908 172.768ZM512.602 156.496C513.658 156.496 514.654 156.676 515.59 157.036C516.55 157.396 517.342 157.912 517.966 158.584C518.686 159.352 519.214 160.204 519.55 161.14C519.934 162.22 520.126 163.372 520.126 164.596C520.126 165.148 520.078 165.484 519.982 165.604C519.862 165.772 519.646 165.856 519.334 165.856H507.238C507.238 167.008 507.382 168.016 507.67 168.88C507.91 169.624 508.318 170.32 508.894 170.968C509.422 171.568 510.022 172 510.694 172.264C511.414 172.552 512.182 172.696 512.998 172.696C513.862 172.696 514.558 172.612 515.086 172.444C515.59 172.276 516.094 172.072 516.598 171.832C517.126 171.568 517.486 171.376 517.678 171.256C517.99 171.064 518.23 170.968 518.398 170.968C518.662 170.968 518.866 171.076 519.01 171.292L519.91 172.48C519.574 172.912 519.094 173.32 518.47 173.704C517.75 174.16 517.162 174.46 516.706 174.604C515.986 174.844 515.338 175.012 514.762 175.108C514.042 175.228 513.382 175.288 512.782 175.288C511.534 175.288 510.37 175.072 509.29 174.64C508.258 174.232 507.334 173.596 506.518 172.732C505.75 171.94 505.15 170.92 504.718 169.672C504.286 168.448 504.07 167.056 504.07 165.496C504.07 164.248 504.274 163.072 504.682 161.968C505.09 160.84 505.654 159.88 506.374 159.088C507.118 158.272 508.018 157.636 509.074 157.18C510.13 156.724 511.306 156.496 512.602 156.496ZM512.674 158.836C511.114 158.836 509.902 159.28 509.038 160.168C508.15 161.104 507.598 162.352 507.382 163.912H517.282C517.282 163.168 517.174 162.496 516.958 161.896C516.694 161.152 516.406 160.612 516.094 160.276C515.686 159.844 515.194 159.496 514.618 159.232C514.066 158.992 513.406 158.872 512.638 158.872L512.674 158.836ZM537.57 172.444C536.058 174.316 533.802 175.252 530.802 175.252C528.498 175.252 526.602 174.424 525.114 172.768C523.554 171.016 522.774 168.712 522.774 165.856C522.774 163.072 523.506 160.828 524.97 159.124C526.506 157.372 528.642 156.496 531.378 156.496C532.746 156.496 534.546 156.928 536.778 157.792V162.544H535.338C535.002 162.544 534.798 162.376 534.726 162.04C534.702 161.968 534.654 161.512 534.582 160.672L534.474 159.484C534.21 159.388 533.946 159.316 533.682 159.268C533.442 159.22 533.274 159.184 533.178 159.16C532.53 159.064 531.858 159.016 531.162 159.016C530.538 159.016 529.878 159.172 529.182 159.484C528.534 159.772 527.97 160.216 527.49 160.816C526.578 162.016 526.122 163.696 526.122 165.856C526.122 168.016 526.602 169.72 527.562 170.968C528.498 172.168 529.782 172.768 531.414 172.768C532.926 172.768 534.258 172.264 535.41 171.256C535.602 171.064 535.842 170.968 536.13 170.968C536.394 170.968 536.586 171.064 536.706 171.256L537.57 172.444ZM546.142 175.288C544.75 175.288 543.646 174.88 542.83 174.064C542.062 173.296 541.678 172.144 541.678 170.608V159.448H539.482C539.266 159.448 539.098 159.4 538.978 159.304C538.858 159.208 538.798 159.028 538.798 158.764V157.504L541.786 157.108L542.506 151.456C542.506 151.264 542.578 151.12 542.722 151.024C542.842 150.928 543.01 150.88 543.226 150.88H544.846V157.144H550.066V159.484H544.846V170.428C544.846 171.22 545.026 171.796 545.386 172.156C545.746 172.516 546.238 172.696 546.862 172.696C547.126 172.696 547.426 172.648 547.762 172.552C547.978 172.48 548.194 172.384 548.41 172.264C548.482 172.216 548.554 172.168 548.626 172.12C548.698 172.072 548.77 172.024 548.842 171.976C549.034 171.88 549.154 171.832 549.202 171.832C549.37 171.832 549.514 171.928 549.634 172.12L550.57 173.632C549.922 174.184 549.25 174.592 548.554 174.856C547.762 175.144 546.958 175.288 546.142 175.288ZM574.335 149.728C577.887 150.88 579.663 153.376 579.663 157.216C579.663 159.688 578.847 161.632 577.215 163.048C575.463 164.584 573.087 165.352 570.087 165.352H566.415V172.372C566.607 172.444 567.303 172.588 568.503 172.804C568.839 172.876 569.007 173.104 569.007 173.488V175H560.367V173.488C560.367 173.104 560.547 172.876 560.907 172.804L562.959 172.408V151.852C561.807 151.636 561.123 151.492 560.907 151.42C560.547 151.348 560.367 151.12 560.367 150.736V149.224H570.087C571.695 149.224 573.111 149.404 574.335 149.764V149.728ZM576.171 157.144C576.171 155.536 575.667 154.264 574.659 153.328C573.675 152.416 572.151 151.96 570.087 151.96H566.415V162.544H570.087C572.031 162.544 573.531 162.064 574.587 161.104C575.667 160.12 576.207 158.812 576.207 157.18L576.171 157.144ZM589.412 172.768C589.796 172.84 589.988 173.068 589.988 173.452V175H581.564V173.452C581.564 173.068 581.756 172.84 582.14 172.768L584.156 172.372V151.096C583.052 150.88 582.38 150.736 582.14 150.664C581.756 150.592 581.564 150.376 581.564 150.016V148.468H587.396V172.336C588.5 172.552 589.172 172.696 589.412 172.768ZM607.846 172.696C608.014 172.72 608.146 172.804 608.242 172.948C608.338 173.068 608.386 173.212 608.386 173.38V174.928H604.642C604.426 174.928 604.174 174.88 603.886 174.784C603.718 174.736 603.598 174.544 603.526 174.208L603.166 172.48L601.726 173.668C601.318 174.004 600.838 174.292 600.286 174.532C599.758 174.772 599.23 174.952 598.702 175.072C598.222 175.192 597.574 175.252 596.758 175.252C596.086 175.252 595.438 175.144 594.814 174.928C594.07 174.664 593.53 174.376 593.194 174.064C592.762 173.68 592.402 173.176 592.114 172.552C591.85 172 591.718 171.28 591.718 170.392C591.718 169.624 591.91 168.928 592.294 168.304C592.726 167.608 593.374 167.008 594.238 166.504C595.198 165.952 596.35 165.52 597.694 165.208C599.086 164.896 600.838 164.74 602.95 164.74V163.336C602.95 161.92 602.638 160.84 602.014 160.096C601.39 159.352 600.49 158.98 599.314 158.98C598.546 158.98 597.886 159.088 597.334 159.304C596.71 159.544 596.254 159.76 595.966 159.952C595.822 160.048 595.654 160.156 595.462 160.276C595.294 160.372 595.114 160.48 594.922 160.6C594.658 160.792 594.382 160.888 594.094 160.888C593.83 160.888 593.638 160.84 593.518 160.744C593.374 160.624 593.254 160.48 593.158 160.312L592.582 159.304C593.518 158.392 594.598 157.672 595.822 157.144C596.926 156.664 598.222 156.424 599.71 156.424C600.79 156.424 601.702 156.592 602.446 156.928C603.262 157.288 603.922 157.744 604.426 158.296C604.954 158.848 605.362 159.568 605.65 160.456C605.914 161.248 606.046 162.184 606.046 163.264V172.372C607.198 172.612 607.798 172.744 607.846 172.768V172.696ZM602.878 166.792C601.318 166.792 600.07 166.876 599.134 167.044C598.222 167.212 597.382 167.464 596.614 167.8C595.942 168.112 595.462 168.472 595.174 168.88C594.886 169.312 594.742 169.768 594.742 170.248C594.742 170.632 594.826 171.04 594.994 171.472C595.138 171.832 595.354 172.12 595.642 172.336C595.93 172.552 596.242 172.708 596.578 172.804C596.986 172.924 597.382 172.984 597.766 172.984C598.246 172.984 598.75 172.924 599.278 172.804C599.758 172.684 600.202 172.528 600.61 172.336C600.97 172.168 601.366 171.904 601.798 171.544C602.038 171.352 602.398 171.016 602.878 170.536V166.792ZM624.863 172.444C623.351 174.316 621.095 175.252 618.095 175.252C615.791 175.252 613.895 174.424 612.407 172.768C610.847 171.016 610.067 168.712 610.067 165.856C610.067 163.072 610.799 160.828 612.263 159.124C613.799 157.372 615.935 156.496 618.671 156.496C620.039 156.496 621.839 156.928 624.071 157.792V162.544H622.631C622.295 162.544 622.091 162.376 622.019 162.04C621.995 161.968 621.947 161.512 621.875 160.672L621.767 159.484C621.503 159.388 621.239 159.316 620.975 159.268C620.735 159.22 620.567 159.184 620.471 159.16C619.823 159.064 619.151 159.016 618.455 159.016C617.831 159.016 617.171 159.172 616.475 159.484C615.827 159.772 615.263 160.216 614.783 160.816C613.871 162.016 613.415 163.696 613.415 165.856C613.415 168.016 613.895 169.72 614.855 170.968C615.791 172.168 617.075 172.768 618.707 172.768C620.219 172.768 621.551 172.264 622.703 171.256C622.895 171.064 623.135 170.968 623.423 170.968C623.687 170.968 623.879 171.064 623.999 171.256L624.863 172.444ZM635.789 156.496C636.845 156.496 637.841 156.676 638.777 157.036C639.737 157.396 640.529 157.912 641.153 158.584C641.873 159.352 642.401 160.204 642.737 161.14C643.121 162.22 643.313 163.372 643.313 164.596C643.313 165.148 643.265 165.484 643.169 165.604C643.049 165.772 642.833 165.856 642.521 165.856H630.425C630.425 167.008 630.569 168.016 630.857 168.88C631.097 169.624 631.505 170.32 632.081 170.968C632.609 171.568 633.209 172 633.881 172.264C634.601 172.552 635.369 172.696 636.185 172.696C637.049 172.696 637.745 172.612 638.273 172.444C638.777 172.276 639.281 172.072 639.785 171.832C640.313 171.568 640.673 171.376 640.865 171.256C641.177 171.064 641.417 170.968 641.585 170.968C641.849 170.968 642.053 171.076 642.197 171.292L643.097 172.48C642.761 172.912 642.281 173.32 641.657 173.704C640.937 174.16 640.349 174.46 639.893 174.604C639.173 174.844 638.525 175.012 637.949 175.108C637.229 175.228 636.569 175.288 635.969 175.288C634.721 175.288 633.557 175.072 632.477 174.64C631.445 174.232 630.521 173.596 629.705 172.732C628.937 171.94 628.337 170.92 627.905 169.672C627.473 168.448 627.257 167.056 627.257 165.496C627.257 164.248 627.461 163.072 627.869 161.968C628.277 160.84 628.841 159.88 629.561 159.088C630.305 158.272 631.205 157.636 632.261 157.18C633.317 156.724 634.493 156.496 635.789 156.496ZM635.861 158.836C634.301 158.836 633.089 159.28 632.225 160.168C631.337 161.104 630.785 162.352 630.569 163.912H640.469C640.469 163.168 640.361 162.496 640.145 161.896C639.881 161.152 639.593 160.612 639.281 160.276C638.873 159.844 638.381 159.496 637.805 159.232C637.253 158.992 636.593 158.872 635.825 158.872L635.861 158.836ZM652.572 156.496C653.82 156.496 655.404 156.82 657.324 157.468V162.148H655.92C655.584 162.148 655.38 161.98 655.308 161.644L655.092 159.268C653.964 159.004 653.028 158.872 652.284 158.872H652.248C651.264 158.872 650.436 159.136 649.764 159.664C649.116 160.168 648.792 160.72 648.792 161.32C648.792 161.944 648.936 162.4 649.224 162.688C649.704 163.24 650.4 163.66 651.312 163.948L652.392 164.272C652.584 164.32 652.968 164.44 653.544 164.632L655.272 165.28C655.752 165.448 656.256 165.76 656.784 166.216C657.768 166.984 658.26 168.04 658.26 169.384C658.26 171.136 657.672 172.528 656.496 173.56C655.224 174.688 653.616 175.252 651.672 175.252C649.68 175.252 647.712 174.928 645.768 174.28V169.528H647.064C647.352 169.528 647.532 169.672 647.604 169.96L647.82 172.264C648.78 172.744 650.016 172.984 651.528 172.984C652.68 172.984 653.616 172.684 654.336 172.084C654.96 171.532 655.272 170.92 655.272 170.248C655.272 169.552 655.128 169.048 654.84 168.736C654.504 168.352 654.144 168.064 653.76 167.872C653.232 167.608 652.728 167.416 652.248 167.296C650.472 166.72 649.356 166.336 648.9 166.144C648.324 165.88 647.784 165.544 647.28 165.136C646.272 164.296 645.768 163.168 645.768 161.752C645.768 160.312 646.344 159.088 647.496 158.08C648.696 157.024 650.388 156.496 652.572 156.496Z" fill="#E8E8E8"/>
<path fill-rule="evenodd" clip-rule="evenodd" d="M557 37C583.51 37 605 58.4901 605 85C605 111.509 583.51 133 557 133C530.49 133 509 111.509 509 85C509 58.4901 530.49 37 557 37Z" fill="#333333"/>
<path fill-rule="evenodd" clip-rule="evenodd" d="M557 54.5468C561.124 54.5468 565.016 55.3202 568.672 56.867C572.328 58.414 575.514 60.5476 578.234 63.2654C580.952 65.9857 583.086 69.1717 584.633 72.8281C586.18 76.4843 586.953 80.3756 586.953 84.4999C586.953 88.6263 586.18 92.5154 584.633 96.1718C583.086 99.828 580.952 103.016 578.234 105.734C575.514 108.454 572.328 110.586 568.672 112.133C565.016 113.679 561.124 114.453 557 114.453C552.873 114.453 548.984 113.679 545.328 112.133C541.672 110.586 538.484 108.454 535.766 105.734C533.045 103.016 530.914 99.828 529.367 96.1718C527.82 92.5154 527.047 88.6263 527.047 84.4999C527.047 80.3756 527.82 76.4843 529.367 72.8281C530.914 69.1717 533.045 65.9857 535.766 63.2654C538.484 60.5476 541.672 58.414 545.328 56.867C548.984 55.3202 552.873 54.5468 557 54.5468ZM557 112.062C560.843 112.062 564.429 111.337 567.758 109.883C571.084 108.43 574.016 106.486 576.547 104.047C578.984 101.516 580.928 98.5867 582.383 95.2576C583.835 91.9309 584.562 88.345 584.562 84.4999C584.562 80.6569 583.835 77.0708 582.383 73.742C580.928 70.4153 578.984 67.4841 576.547 64.9529C574.016 62.5162 571.084 60.5718 567.758 59.1172C564.429 57.6646 560.843 56.9372 557 56.9372C553.155 56.9372 549.569 57.6646 546.242 59.1172C542.913 60.5718 539.984 62.5162 537.453 64.9529C535.014 67.4841 533.07 70.4153 531.617 73.742C530.163 77.0708 529.437 80.6569 529.437 84.4999C529.437 88.345 530.163 91.9309 531.617 95.2576C533.07 98.5867 535.014 101.516 537.453 104.047C539.984 106.486 542.913 108.43 546.242 109.883C549.569 111.337 553.155 112.062 557 112.062ZM572.047 73.8123C572.328 73.4388 572.726 73.25 573.242 73.25C573.756 73.25 574.202 73.4388 574.578 73.8123C574.859 74.188 575 74.6341 575 75.1483C575 75.6646 574.811 76.0625 574.438 76.3438L553.906 96.3123C553.812 96.5012 553.647 96.6178 553.414 96.6639C553.179 96.7122 552.968 96.7342 552.781 96.7342C552.5 96.7342 552.241 96.7122 552.008 96.6639C551.773 96.6178 551.608 96.5012 551.516 96.3123L543.5 88.2966C543.124 87.9232 542.937 87.4772 542.937 86.9609C542.937 86.4466 543.124 86.0467 543.5 85.7654C543.781 85.392 544.179 85.2031 544.695 85.2031C545.209 85.2031 545.655 85.392 546.031 85.7654L552.781 92.5154L572.047 73.8123Z" fill="#FF6363"/>
</g>
<g clip-path="url(#clip1)">
<path d="M846.754 172.752C850.546 173.496 852.442 175.464 852.442 178.656C852.442 180.984 851.602 182.796 849.922 184.092C848.242 185.364 846.058 186 843.37 186H831.67V184.416C831.67 184.056 831.85 183.84 832.21 183.768L834.262 183.336V162.888L832.21 162.456C831.85 162.384 831.67 162.168 831.67 161.808V160.224H842.506C845.314 160.224 847.522 160.752 849.13 161.808C850.762 162.864 851.578 164.496 851.578 166.704C851.578 168.264 851.182 169.536 850.39 170.52C849.598 171.504 848.386 172.248 846.754 172.752ZM842.362 171.744C844.186 171.744 845.602 171.396 846.61 170.7C847.618 169.98 848.122 168.888 848.122 167.424C848.122 165.864 847.642 164.748 846.682 164.076C845.746 163.38 844.354 163.032 842.506 163.032H837.754V171.744H842.362ZM848.986 178.584C848.986 177.096 848.482 176.004 847.474 175.308C846.49 174.612 845.11 174.264 843.334 174.264H837.754V183.228H843.37C845.266 183.252 846.67 182.868 847.582 182.076C848.518 181.26 848.986 180.096 848.986 178.584ZM862.662 167.496C863.982 167.496 865.182 167.712 866.262 168.144C867.318 168.576 868.242 169.2 869.034 170.016C869.778 170.784 870.354 171.768 870.762 172.968C871.17 174.144 871.374 175.44 871.374 176.856C871.374 178.272 871.17 179.568 870.762 180.744C870.354 181.944 869.778 182.928 869.034 183.696C868.242 184.512 867.318 185.136 866.262 185.568C865.182 186 863.982 186.216 862.662 186.216C861.342 186.216 860.142 186 859.062 185.568C858.006 185.136 857.082 184.512 856.29 183.696C855.57 182.952 854.982 181.968 854.526 180.744C854.142 179.712 853.95 178.416 853.95 176.856C853.95 175.296 854.142 174 854.526 172.968C854.982 171.744 855.57 170.76 856.29 170.016C857.082 169.2 858.006 168.576 859.062 168.144C860.142 167.712 861.342 167.496 862.662 167.496ZM862.662 183.768C864.51 183.768 865.854 183.168 866.694 181.968C867.582 180.72 868.026 179.028 868.026 176.892C868.026 174.756 867.582 173.064 866.694 171.816C865.854 170.616 864.51 170.016 862.662 170.016C861.726 170.016 860.934 170.16 860.286 170.448C859.662 170.736 859.11 171.192 858.63 171.816C858.174 172.44 857.838 173.16 857.622 173.976C857.382 174.936 857.262 175.92 857.262 176.928C857.262 177.888 857.382 178.848 857.622 179.808C857.838 180.624 858.174 181.344 858.63 181.968C859.038 182.52 859.59 182.952 860.286 183.264C861.054 183.6 861.846 183.768 862.662 183.768ZM882.596 167.496C883.916 167.496 885.116 167.712 886.196 168.144C887.252 168.576 888.176 169.2 888.968 170.016C889.712 170.784 890.288 171.768 890.696 172.968C891.104 174.144 891.308 175.44 891.308 176.856C891.308 178.272 891.104 179.568 890.696 180.744C890.288 181.944 889.712 182.928 888.968 183.696C888.176 184.512 887.252 185.136 886.196 185.568C885.116 186 883.916 186.216 882.596 186.216C881.276 186.216 880.076 186 878.996 185.568C877.94 185.136 877.016 184.512 876.224 183.696C875.504 182.952 874.916 181.968 874.46 180.744C874.076 179.712 873.884 178.416 873.884 176.856C873.884 175.296 874.076 174 874.46 172.968C874.916 171.744 875.504 170.76 876.224 170.016C877.016 169.2 877.94 168.576 878.996 168.144C880.076 167.712 881.276 167.496 882.596 167.496ZM882.596 183.768C884.444 183.768 885.788 183.168 886.628 181.968C887.516 180.72 887.96 179.028 887.96 176.892C887.96 174.756 887.516 173.064 886.628 171.816C885.788 170.616 884.444 170.016 882.596 170.016C881.66 170.016 880.868 170.16 880.22 170.448C879.596 170.736 879.044 171.192 878.564 171.816C878.108 172.44 877.772 173.16 877.556 173.976C877.316 174.936 877.196 175.92 877.196 176.928C877.196 177.888 877.316 178.848 877.556 179.808C877.772 180.624 878.108 181.344 878.564 181.968C878.972 182.52 879.524 182.952 880.22 183.264C880.988 183.6 881.78 183.768 882.596 183.768ZM911.371 183.768C911.731 183.84 911.911 184.056 911.911 184.416V186H908.527C908.071 186 907.663 185.784 907.303 185.352L901.327 177.864C901.159 177.624 900.979 177.468 900.787 177.396C900.595 177.324 900.319 177.288 899.959 177.288H899.095V183.372C899.239 183.372 899.659 183.456 900.355 183.624L901.111 183.768C901.495 183.84 901.687 184.068 901.687 184.452V186H893.263V184.452C893.263 184.068 893.443 183.84 893.803 183.768L895.855 183.372V162.096C894.703 161.88 894.019 161.736 893.803 161.664C893.443 161.592 893.263 161.376 893.263 161.016V159.468H899.095V175.056H899.887C900.391 175.056 900.775 174.888 901.039 174.552L905.143 170.16C905.071 170.16 904.999 170.148 904.927 170.124C904.855 170.1 904.783 170.088 904.711 170.088L904.135 169.98C903.751 169.908 903.559 169.68 903.559 169.296V167.784H911.191V169.296C911.191 169.656 911.035 169.872 910.723 169.944L908.491 170.376L904.243 174.912C903.859 175.368 903.511 175.692 903.199 175.884C903.679 176.196 904.039 176.568 904.279 177L909.319 183.408L910.255 183.552C910.879 183.696 911.263 183.768 911.407 183.768H911.371ZM931.818 160.008C932.754 160.008 933.618 160.152 934.41 160.44C935.154 160.704 935.838 161.112 936.462 161.664C937.014 162.144 937.458 162.72 937.794 163.392C938.106 163.992 938.298 164.688 938.37 165.48L936.39 165.876L936.21 165.912C936.114 165.912 935.97 165.864 935.778 165.768C935.658 165.72 935.562 165.576 935.49 165.336C935.418 165.048 935.286 164.712 935.094 164.328C934.95 164.04 934.722 163.74 934.41 163.428C934.146 163.164 933.786 162.936 933.33 162.744C932.874 162.552 932.394 162.456 931.89 162.456C931.242 162.456 930.69 162.552 930.234 162.744C929.778 162.936 929.37 163.212 929.01 163.572C928.65 163.932 928.386 164.328 928.218 164.76C928.026 165.264 927.93 165.768 927.93 166.272C927.93 166.68 927.99 167.088 928.11 167.496C928.23 167.928 928.386 168.312 928.578 168.648C928.746 168.96 929.01 169.356 929.37 169.836C929.658 170.22 930.042 170.652 930.522 171.132L937.938 178.656C938.346 177.912 938.706 177.072 939.018 176.136C939.33 175.2 939.522 174.312 939.594 173.472C939.594 173.28 939.666 173.112 939.81 172.968C939.954 172.824 940.122 172.752 940.314 172.752H942.258C942.258 174.12 942.042 175.476 941.61 176.82C941.154 178.236 940.554 179.484 939.81 180.564L945.21 186.036H942.114C941.754 186.036 941.466 186 941.25 185.928C941.106 185.88 940.866 185.688 940.53 185.352L937.938 182.76C936.762 183.864 935.466 184.728 934.05 185.352C932.634 185.976 931.014 186.288 929.19 186.288C928.23 186.288 927.294 186.132 926.382 185.82C925.446 185.484 924.618 185.016 923.898 184.416C923.178 183.816 922.602 183.072 922.17 182.184C921.738 181.32 921.522 180.312 921.522 179.16C921.522 178.32 921.666 177.528 921.954 176.784C922.266 175.992 922.65 175.296 923.106 174.696C923.586 174.072 924.186 173.496 924.906 172.968C925.578 172.488 926.322 172.056 927.138 171.672C926.466 170.808 925.938 169.908 925.554 168.972C925.194 168.108 925.014 167.208 925.014 166.272C925.014 165.36 925.17 164.52 925.482 163.752C925.77 163.056 926.238 162.384 926.886 161.736C927.438 161.184 928.17 160.74 929.082 160.404C929.922 160.092 930.882 159.936 931.962 159.936L931.818 160.008ZM924.726 178.908C924.726 179.7 924.87 180.384 925.158 180.96C925.446 181.56 925.818 182.064 926.274 182.472C926.682 182.832 927.222 183.144 927.894 183.408C928.47 183.624 929.082 183.732 929.73 183.732C931.05 183.732 932.25 183.48 933.33 182.976C934.41 182.472 935.346 181.824 936.138 181.032L928.542 173.364C927.294 174.012 926.334 174.828 925.662 175.812C925.014 176.748 924.69 177.792 924.69 178.944L924.726 178.908ZM973.328 166.452H971.6C971.168 166.452 970.916 166.248 970.844 165.84L970.592 163.068H960.944V171.636H970.448V174.372H960.944V183.192H970.592L970.808 180.6C970.88 180.216 971.144 180.024 971.6 180.024H973.328V186H954.824V184.488C954.824 184.104 955.004 183.876 955.364 183.804L957.416 183.408V162.852C956.264 162.636 955.58 162.492 955.364 162.42C955.004 162.348 954.824 162.12 954.824 161.736V160.224H973.328V166.452ZM981.569 170.376C983.369 168.432 985.385 167.46 987.617 167.46C989.585 167.46 991.097 168.096 992.153 169.368C993.185 170.616 993.701 172.284 993.701 174.372V183.336C994.853 183.552 995.537 183.696 995.753 183.768C996.137 183.84 996.329 184.068 996.329 184.452V186H990.497V174.408C990.497 171.48 989.225 170.016 986.681 170.016C984.881 170.016 983.225 170.868 981.713 172.572V183.372C981.809 183.372 982.505 183.516 983.801 183.804C984.161 183.876 984.341 184.104 984.341 184.488V186H975.953V184.488C975.953 184.104 976.121 183.876 976.457 183.804L978.545 183.408V170.412C977.345 170.196 976.649 170.052 976.457 169.98C976.121 169.908 975.953 169.68 975.953 169.296V167.784H980.417C980.849 167.784 981.137 168 981.281 168.432L981.569 170.412V170.376ZM1005.15 161.16C1005.27 161.4 1005.33 161.7 1005.33 162.06C1005.33 162.396 1005.27 162.684 1005.15 162.924C1005 163.212 1004.84 163.452 1004.64 163.644C1004.45 163.836 1004.21 164.004 1003.92 164.148C1003.68 164.268 1003.4 164.328 1003.06 164.328C1002.72 164.328 1002.44 164.268 1002.2 164.148C1001.91 164.004 1001.67 163.836 1001.48 163.644C1001.28 163.452 1001.12 163.212 1000.97 162.924C1000.85 162.684 1000.79 162.396 1000.79 162.06C1000.79 161.7 1000.85 161.4 1000.97 161.16C1001.14 160.824 1001.31 160.572 1001.48 160.404C1001.67 160.212 1001.91 160.044 1002.2 159.9C1002.44 159.78 1002.72 159.72 1003.06 159.72C1003.4 159.72 1003.68 159.78 1003.92 159.9C1004.21 160.044 1004.45 160.212 1004.64 160.404C1004.81 160.572 1004.98 160.824 1005.15 161.16ZM1001.8 192.156C1001.2 192.42 1000.47 192.552 999.605 192.552C998.837 192.552 998.093 192.432 997.373 192.192L997.517 190.464C997.565 190.224 997.757 190.104 998.093 190.104H998.813C999.749 190.104 1000.41 189.888 1000.79 189.456C1001.2 189 1001.4 188.304 1001.4 187.368V170.412C1001.26 170.388 1001.03 170.352 1000.72 170.304C1000.41 170.232 999.941 170.136 999.317 170.016C998.981 169.944 998.813 169.716 998.813 169.332V167.784H1004.57V187.368C1004.57 189.792 1003.65 191.4 1001.8 192.192V192.156ZM1016.01 167.496C1017.33 167.496 1018.53 167.712 1019.61 168.144C1020.67 168.576 1021.59 169.2 1022.39 170.016C1023.13 170.784 1023.71 171.768 1024.11 172.968C1024.52 174.144 1024.73 175.44 1024.73 176.856C1024.73 178.272 1024.52 179.568 1024.11 180.744C1023.71 181.944 1023.13 182.928 1022.39 183.696C1021.59 184.512 1020.67 185.136 1019.61 185.568C1018.53 186 1017.33 186.216 1016.01 186.216C1014.69 186.216 1013.49 186 1012.41 185.568C1011.36 185.136 1010.43 184.512 1009.64 183.696C1008.92 182.952 1008.33 181.968 1007.88 180.744C1007.49 179.712 1007.3 178.416 1007.3 176.856C1007.3 175.296 1007.49 174 1007.88 172.968C1008.33 171.744 1008.92 170.76 1009.64 170.016C1010.43 169.2 1011.36 168.576 1012.41 168.144C1013.49 167.712 1014.69 167.496 1016.01 167.496ZM1016.01 183.768C1017.86 183.768 1019.21 183.168 1020.05 181.968C1020.93 180.72 1021.38 179.028 1021.38 176.892C1021.38 174.756 1020.93 173.064 1020.05 171.816C1019.21 170.616 1017.86 170.016 1016.01 170.016C1015.08 170.016 1014.29 170.16 1013.64 170.448C1013.01 170.736 1012.46 171.192 1011.98 171.816C1011.53 172.44 1011.19 173.16 1010.97 173.976C1010.73 174.936 1010.61 175.92 1010.61 176.928C1010.61 177.888 1010.73 178.848 1010.97 179.808C1011.19 180.624 1011.53 181.344 1011.98 181.968C1012.39 182.52 1012.94 182.952 1013.64 183.264C1014.41 183.6 1015.2 183.768 1016.01 183.768ZM1045.81 169.296C1045.81 169.656 1045.63 169.872 1045.27 169.944C1045.17 169.944 1045.03 169.968 1044.84 170.016C1044.67 170.064 1044.49 170.112 1044.3 170.16L1043.4 170.34L1034.36 191.364C1034.26 191.604 1034.11 191.796 1033.89 191.94C1033.7 192.084 1033.47 192.156 1033.21 192.156H1030.83L1034.14 184.92L1027.74 170.304C1027.02 170.184 1026.48 170.064 1026.12 169.944C1025.76 169.872 1025.58 169.656 1025.58 169.296V167.748H1033.75V169.296C1033.75 169.656 1033.57 169.872 1033.21 169.944C1032.97 170.016 1032.3 170.16 1031.19 170.376L1035.26 179.88C1035.38 180.144 1035.48 180.456 1035.55 180.816C1035.64 181.176 1035.7 181.416 1035.73 181.536C1035.9 180.96 1036.09 180.408 1036.3 179.88L1040.23 170.376C1040.23 170.376 1039.57 170.244 1038.25 169.98C1037.91 169.908 1037.74 169.68 1037.74 169.296V167.784H1044.51L1045.81 167.748V169.296Z" fill="#E8E8E8"/>
<path fill-rule="evenodd" clip-rule="evenodd" d="M937 37C963.51 37 985 58.4901 985 85C985 111.509 963.51 133 937 133C910.49 133 889 111.509 889 85C889 58.4901 910.49 37 937 37Z" fill="#333333"/>
<path fill-rule="evenodd" clip-rule="evenodd" d="M967.586 83.6561C967.586 84.3131 967.491 84.9218 967.305 85.4841C967.116 86.0467 966.834 86.563 966.461 87.0311C966.085 87.5014 965.663 87.8748 965.195 88.1561C964.725 88.4374 964.211 88.6724 963.648 88.8592C963.93 89.3294 964.163 89.8218 964.351 90.3357C964.538 90.8523 964.633 91.4388 964.633 92.0936C964.633 92.6562 964.538 93.2185 964.351 93.7812C964.163 94.3438 963.93 94.86 963.648 95.3279C963.273 95.7036 962.851 96.0552 962.383 96.3826C961.913 96.7123 961.444 96.9694 960.977 97.1562C961.258 97.6264 961.491 98.1404 961.68 98.703C961.866 99.2656 961.961 99.828 961.961 100.391C961.961 101.047 961.866 101.634 961.68 102.148C961.491 102.665 961.258 103.157 960.977 103.625C960.601 104.095 960.179 104.493 959.711 104.82C959.241 105.15 958.726 105.361 958.164 105.453C958.538 105.923 958.819 106.416 959.008 106.929C959.195 107.446 959.289 108.033 959.289 108.687C959.289 109.344 959.148 110.001 958.867 110.656C958.586 111.313 958.21 111.876 957.742 112.344C957.18 112.814 956.569 113.187 955.914 113.469C955.257 113.75 954.554 113.89 953.805 113.89H935.242C934.585 113.89 933.836 113.798 932.992 113.609C932.148 113.423 931.256 113.141 930.32 112.766C929.382 112.484 928.444 112.133 927.508 111.711C926.57 111.289 925.631 110.891 924.695 110.515C923.57 110.047 922.467 109.58 921.391 109.109C920.312 108.641 919.538 108.406 919.07 108.406H906.273V80.9843L907.398 80.8435C912.742 80.8435 916.398 80.8435 918.367 80.8435C919.211 80.8435 919.984 80.7514 920.687 80.5623C921.391 80.3757 922.116 79.9999 922.867 79.4373C923.711 78.9694 924.671 78.3123 925.75 77.4687C926.827 76.6248 928.116 75.5943 929.617 74.3749C932.522 71.9381 934.234 68.8904 934.75 65.2342C935.264 61.5781 935.523 59.4687 935.523 58.9061C935.523 58.3435 935.664 57.8054 935.945 57.2888C936.226 56.7748 936.6 56.3749 937.07 56.0936C937.538 55.7201 938.03 55.4608 938.547 55.3202C939.061 55.1794 939.553 55.1092 940.023 55.1092C940.773 55.1092 941.522 55.2037 942.273 55.3905C943.023 55.5794 943.726 56.0015 944.383 56.6562C945.038 57.313 945.554 58.1811 945.93 59.2577C946.303 60.3366 946.492 61.767 946.492 63.5467C946.492 65.1418 946.374 66.6647 946.141 68.117C945.905 69.5717 945.6 70.9537 945.226 72.2655C944.945 73.5794 944.594 74.7748 944.172 75.8514C943.75 76.9303 943.398 77.8445 943.117 78.5937H962.242C963.086 78.5937 963.811 78.7123 964.422 78.9452C965.031 79.1802 965.617 79.5317 966.18 79.9999C966.648 80.4701 966.999 81.0085 967.234 81.617C967.467 82.2279 967.586 82.9069 967.586 83.6561ZM962.242 86.6093C962.71 86.6093 963.132 86.5388 963.508 86.3983C963.881 86.2578 964.163 86.0467 964.351 85.7654C964.633 85.4841 964.866 85.1809 965.055 84.8515C965.241 84.5242 965.336 84.1263 965.336 83.6561C965.336 82.9069 965.055 82.2498 964.492 81.6875C963.93 81.1249 963.178 80.8435 962.242 80.8435H953.805C953.805 80.938 953.805 80.938 953.805 80.8435H939.32L940.164 79.156C942.788 72.6874 944.102 67.4842 944.102 63.5467C944.102 60.4529 943.585 58.649 942.555 58.1328C941.522 57.6185 940.678 57.3593 940.023 57.3593C939.742 57.3593 939.32 57.4999 938.758 57.7811C938.195 58.0625 937.914 58.4382 937.914 58.9061C937.914 59.4687 937.866 60.4068 937.773 61.7186C937.679 63.0327 937.398 64.5311 936.93 66.2187C936.459 67.9062 935.78 69.6419 934.89 71.4218C933.999 73.2036 932.757 74.7506 931.164 76.0624C929.569 77.3763 928.233 78.477 927.156 79.367C926.077 80.259 925.069 80.9843 924.133 81.5467C923.194 82.1093 922.256 82.5311 921.32 82.8124C920.382 83.0937 919.398 83.2342 918.367 83.2342C917.616 83.2342 916.796 83.2342 915.906 83.2342C915.014 83.2342 914.1 83.2342 913.164 83.2342C912.32 83.2342 911.498 83.2342 910.703 83.2342C909.905 83.2342 909.226 83.2342 908.664 83.2342V106.016H919.07C919.725 106.016 920.593 106.226 921.672 106.648C922.748 107.07 924.084 107.611 925.68 108.265C926.429 108.641 927.249 109.039 928.141 109.461C929.03 109.883 929.898 110.234 930.742 110.515C931.678 110.797 932.522 111.056 933.273 111.289C934.023 111.524 934.68 111.641 935.242 111.641H950.852H953.805C954.273 111.641 954.695 111.548 955.07 111.359C955.444 111.172 955.773 110.937 956.055 110.656C956.336 110.469 956.547 110.188 956.687 109.812C956.828 109.439 956.898 109.063 956.898 108.687C956.898 108.219 956.828 107.822 956.687 107.492C956.547 107.165 956.336 106.859 956.055 106.578C955.773 106.297 955.444 106.086 955.07 105.945C954.695 105.805 954.273 105.734 953.805 105.734H953.523V103.344H956.758C957.131 103.344 957.507 103.273 957.883 103.133C958.256 102.992 958.586 102.781 958.867 102.5C959.054 102.219 959.241 101.891 959.43 101.516C959.616 101.142 959.711 100.766 959.711 100.391C959.711 100.017 959.616 99.6411 959.43 99.2656C959.241 98.8919 959.054 98.5625 958.867 98.2812C958.586 98.0943 958.256 97.9075 957.883 97.7186C957.507 97.532 957.131 97.4373 956.758 97.4373H955.773V95.0468H959.289C959.663 95.0468 960.038 94.9763 960.414 94.8358C960.788 94.6953 961.117 94.4842 961.398 94.203C961.68 93.9216 961.913 93.5942 962.102 93.2185C962.288 92.845 962.383 92.4693 962.383 92.0936C962.383 91.6257 962.288 91.2038 962.102 90.8281C961.913 90.4544 961.68 90.1734 961.398 89.9842C961.117 89.7029 960.788 89.4702 960.414 89.2811C960.038 89.0945 959.663 88.9998 959.289 88.9998H958.164V86.6093H962.242Z" fill="#00A2FF"/>
</g>
<defs>
<clipPath id="clip0">
<rect x="458" y="35" width="200" height="161" fill="white"/>
</clipPath>
<clipPath id="clip1">
<rect x="831" y="35" width="215" height="174" fill="white"/>
</clipPath>
</defs>
</svg>
